<?xml version="1.0" standalone="no"?>
<!DOCTYPE svg PUBLIC "-//W3C//DTD SVG 20010904//EN"
 "http://www.w3.org/TR/2001/REC-SVG-20010904/DTD/svg10.dtd">
<svg version="1.0" xmlns="http://www.w3.org/2000/svg"
 width="1000.000000pt" height="1000.000000pt" viewBox="0 0 1000.000000 1000.000000"
 preserveAspectRatio="xMidYMid meet">
<metadata>
Created by potrace 1.11, written by Peter Selinger 2001-2013
</metadata>
<g transform="translate(0.000000,1000.000000) scale(0.100000,-0.100000)"
fill="#000000" stroke="none">
<path d="M1560 7129 c-820 -94 -1458 -737 -1550 -1564 -13 -117 -13 -1013 0
-1130 93 -834 731 -1472 1565 -1565 124 -14 6726 -14 6850 0 834 93 1472 731
1565 1565 13 117 13 1013 0 1130 -93 834 -731 1472 -1565 1565 -112 12 -6756
11 -6865 -1z m365 -1178 c88 -151 165 -273 170 -271 6 2 80 126 165 274 l155
271 533 3 c292 1 532 0 532 -2 0 -3 -311 -548 -692 -1211 -546 -952 -694
-1203 -703 -1193 -14 15 -1360 2364 -1370 2391 -7 16 22 17 521 15 l529 -3
160 -274z m3360 41 c131 -36 201 -76 288 -163 42 -43 77 -82 77 -86 0 -5 -71
-229 -159 -498 l-158 -490 -59 -13 c-33 -7 -160 -16 -291 -19 l-233 -6 0 -333
0 -334 -250 0 -250 0 0 986 0 986 478 -4 c453 -4 481 -5 557 -26z m1698 -19
c100 -340 371 -1222 374 -1219 2 2 124 286 272 632 l268 629 262 3 c143 1 261
-1 261 -6 0 -4 -177 -446 -393 -982 l-393 -975 -262 -3 -261 -2 -50 157 c-27
87 -107 340 -176 563 -70 223 -129 407 -130 408 -2 2 -87 -251 -190 -562
l-186 -566 -262 2 -261 3 -133 226 -132 227 128 393 c70 217 130 401 133 409
3 9 67 -109 150 -274 80 -159 147 -285 150 -280 2 5 96 291 208 637 l204 627
202 0 202 0 15 -47z m2128 -946 l366 -972 -270 -3 c-204 -2 -272 1 -278 10 -4
7 -34 85 -65 175 l-58 163 -353 0 c-194 0 -353 1 -353 3 0 2 33 86 73 187 l73
185 217 3 c119 1 217 6 217 11 0 5 -45 136 -101 291 l-101 282 128 324 c70
178 130 321 133 318 3 -3 171 -443 372 -977z"/>
<path d="M4750 5370 l0 -262 163 4 c141 3 167 6 202 25 85 45 125 118 126 229
1 117 -38 190 -125 237 -36 19 -60 22 -203 25 l-163 4 0 -262z"/>
</g>
</svg>
